# xmcd
#
# Track frame offsets:
#	150
#	18585
#	32680
#	56840
#	71192
#	89617
#	108090
#	134830
#	151040
#	167857
#	185217
#	202241
#
# Disc length: 2984 seconds
#
# Revision: 1
# Processed by: cddbd v1.4PL0 Copyright (c) Steve Scherf et al.
# Submitted via: audiograbber 1.81.03
#
DISCID=b60ba60c
DTITLE=Jimmy Morello - Can't Be Denied
DYEAR=1997
DGENRE=Blues
TTITLE0=What Happened To You
TTITLE1=Can't Get No Rest
TTITLE2=Silver Spoon
TTITLE3=Back To New Orleans
TTITLE4=Hey Brother
TTITLE5=Mercy Miss Percy
TTITLE6=I Read Your Letter
TTITLE7=Come Back Baby
TTITLE8=Bye Bye So Long
TTITLE9=Leave Me Alone
TTITLE10=Where Have You Gone
TTITLE11=I Ain't Doing Nothing Wrong
EXTD=
EXTT0=
EXTT1=
EXTT2=
EXTT3=
EXTT4=
EXTT5=
EXTT6=
EXTT7=
EXTT8=
EXTT9=
EXTT10=
EXTT11=
PLAYORDER=
